<?xml version="1.0" encoding="UTF-8"?>
<svg id="Layer_2" xmlns="http://www.w3.org/2000/svg" xmlns:xlink="http://www.w3.org/1999/xlink" viewBox="0 0 306.05 307.79">
  <defs>
    <style>
      .cls-1 {
        fill: url(#linear-gradient-2);
        fill-rule: evenodd;
      }

      .cls-2 {
        fill: url(#linear-gradient);
      }

      .cls-3 {
        fill: #fff;
      }
    </style>
    <linearGradient id="linear-gradient" x1="153.03" y1="306.18" x2="153.03" y2="0" gradientUnits="userSpaceOnUse">
      <stop offset="0" stop-color="#7bc2e8"/>
      <stop offset="1" stop-color="#1f6ab4"/>
    </linearGradient>
    <linearGradient id="linear-gradient-2" x1="147.95" y1="307.79" x2="147.95" y2="213.96" gradientUnits="userSpaceOnUse">
      <stop offset="0" stop-color="#89a289"/>
      <stop offset="1" stop-color="#006233"/>
    </linearGradient>
  </defs>
  <g id="Layer_1-2" data-name="Layer_1">
    <g>
      <g>
        <path class="cls-2" d="M306.05,153.09c0,84.55-68.51,153.09-153.02,153.09S0,237.64,0,153.09,68.51,0,153.03,0s153.02,68.55,153.02,153.09Z"/>
        <path class="cls-3" d="M87.48,230.51s-4.28-24.39,7.88-50.26c0,0,3.95-1.57-1.04-7.83,0,0-25.98-39.17,10.16-54,0,0,17.37-4.75,53.3-2.93-37.23-2.79,30.21,6.85,29.5-17.78,0,0-9.35-10.53-25.82-24.97,0,0-15.05-11.51-7.85-54.04,0,0,.91,25.17,10.55,22.16,0,0,11.35-3.24,1.6,4.29,0,0-7.52.65-.86,14.33,0,0,1.71,7.74,12.12,10.52l4.47-15.84,2.44,18.39s17.46,21.95,13.58-7.34l5.23,7.96,5.91-4.96,5.97,11s5.96.58,3.88-15.07c0,0-.17-11.76-10.58-14.53,0,0-4.7-6.66-2.92-8.97l6.55,5.02s7.8-6.58-4.8-20.5c0,0,14-1.5,17.84,24.66l-1.16,10.18,9.81-7.51-13.94,33.37,3.37,17.57s.37,5.49-2.07,7.9c0,0-2.96,1.08-5.15,23.89,0,0-3.83,23.38-22.11,31.71,0,0,.53,6.51,6.63,13.33,0,0,3.6,8.86-.9,16.74,0,0-4.27,9.32-1.38,17.85,1,2.96,4.68,5.62,7.25,8.07,0,0,4.27,11.21-10.81,7.32,0,0-8.87-1.6-7.49-9.41l-2.23-14.25s-2.22-2.48-9.45,7.14c0,0-6.24,12.95-12.25,1.63,0,0-1.63-2.49,1.42-6.73,5.23-7.29,16.53-15.93,15.81-23.97-.73-7.04-10.86-13.97-15.73-14.04-4.9-.39-9.82,2.21-14.93,3.49-6,1.51-14.68,1.52-19.67,3.16-3.29,1.9-5.75,6.38-7.96,9.05-5.29,6.36-7.78,11.96-6.63,16.65,0,0-.64,3.62,1.72,8.53,3.49,7.25,11.13,17.59,17.36,25.67,0,0,1.65,9.82-9.2,1.22l-24.95-34.11-1.93,27.28s-7.37,9.64-10.52-1.02Z"/>
      </g>
      <path class="cls-1" d="M52.27,224.89c24.56,20.9,57.72,8.48,64.19,2.71,4.96,2.08,15.65,21.62,34.47,24.03,43.58,5.56,59.24-35.61,67.63-37.68,7.5,0,34.81,57.82,57.43,30.26,0,0-37.92,61.92-126.59,63.56-90.9-1.67-129.5-79.16-129.5-79.16,0,0,32.64,5.49,32.38-3.74Z"/>
    </g>
  </g>
</svg>